<svg width="580" height="400" xmlns="http://www.w3.org/2000/svg">
 <!-- Created with Method Draw - http://github.com/duopixel/Method-Draw/ -->
 <g>
  <title>background</title>
  <rect fill="#fff" id="canvas_background" height="402" width="582" y="-1" x="-1"/>
  <g display="none" overflow="visible" y="0" x="0" height="100%" width="100%" id="canvasGrid">
   <rect fill="url(#gridpattern)" stroke-width="0" y="0" x="0" height="100%" width="100%"/>
  </g>
 </g>
 <g>
  <title>Layer 1</title>
  <path d="m119.5,130.4375c-1,0 -3,0 -6,0c-9,0 -21.187256,-1.608276 -28,0c-4.352501,1.027481 -7,3 -9,5c-2,2 -4.692383,5.410919 -8,10c-3.922356,5.441971 -6.43288,10.802429 -9,17c-2.420303,5.843124 -3.806164,13.030441 -5,20c-0.860886,5.025818 -2,11 -2,19c0,6 0,12 0,17c0,4 0.228004,7.2771 2,11c2.148857,4.514694 5.819386,7.192215 9,10c8.547646,7.545715 13,9 20,13c7,4 13.814018,7.54895 19,9c5.85778,1.639038 9.041321,1.847229 13,3c3.036163,0.884125 6.022476,1.366547 9,1c4.092209,-0.503784 6.132004,-1.75531 10,-4c3.118484,-1.809723 7.937881,-7.047348 11,-11c3.921417,-5.061874 6.167969,-9.920334 8,-14c2.20607,-4.912567 4.981628,-9.712006 6,-15c0.756424,-3.927826 1.486252,-5.823746 2,-8c0.229752,-0.973251 0,-1 0,-2c0,0 0,0 0,0c1,-5 0.826904,-6.147263 0,-5c-1.307449,1.813995 -4.258011,6.904358 -6,12c-2.35495,6.888702 -3,16 -3,20c0,5 -1.148056,9.228363 0,12c1.082397,2.613129 3,3 7,5c2,1 3.693436,1.458801 5,2c3.695511,1.530731 7.07843,0.210144 10,-1c2.065857,-0.855713 4,-3 6,-5c1,-1 2,-4 3,-7c1,-3 1,-6 1,-10c0,-3 -1.080521,-6.486923 -3,-9c-2.188553,-2.865356 -5.056641,-3.917526 -8,-6c-4.081696,-2.887863 -6.852737,-4.173096 -8,-5c-1.813995,-1.307449 -3,-1 -3,-1c-1,0 -1,0 -1,0c0,0 -1,0 -2,0c0,0 -1,-1 -1,-1c0,0 0.012909,-0.160187 1,0c3.121445,0.506546 5.01947,1.60585 9,2c5.074203,0.502441 12,2 18,2c6,0 12.977341,-0.095444 17,-1c4.974792,-1.118668 9,-3 11,-5c2,-2 2.292892,-2.292892 3,-3c0.707108,-0.707108 1,1 1,1c0,1 0,4 0,7c0,6 0.134644,11.108261 -1,17c-1.018372,5.287994 -3.493454,8.878555 -4,12c-0.480545,2.961258 -1,3 -1,4c0,0 0,1 0,1c0,0 0,0 0,-1c0,0 -0.654816,-4.176971 1,-9c1.45137,-4.230072 5.344574,-8.742828 9,-14c3.328781,-4.787399 8.21167,-7.714127 11,-10c3.281006,-2.689789 5,-4 7,-4c0,0 1.188751,-0.584717 2,0c2.565369,1.849014 2,8 2,15c0,10 0,18 0,24c0,6 -1.486252,10.823761 -2,13c-0.459503,1.946503 0,3 0,3c5,0 7.025818,-0.679626 9,-1c6.242889,-1.013092 12,-4 14,-5c4,-2 6.561218,-6.140518 9,-13c2.551208,-7.175751 6.167969,-13.920334 8,-18c2.206055,-4.912567 4,-8 5,-9c1,-1 1.292908,-1.707108 2,-1c0.707092,0.707108 0.320374,1.025818 0,3c-0.506531,3.121445 -1.824615,7.06134 -4,13c-1.852264,5.056595 -3.569519,10.132996 -5,14c-0.775787,2.097168 -1,3 -1,4c0,0 0,0 0,-1c0,0 2.517792,-3.427261 7,-8c5.467194,-5.577621 9.831268,-9.220535 15,-13c2.910461,-2.128189 5,-3 6,-3c1,0 1,1 1,3c0,7 0,13 0,20c0,5 1,7 1,8c0,0 1,0 1,0c2,0 5.051636,0.640717 9,0c3.121429,-0.506531 6.22937,-1.33197 10,-3c3.297333,-1.458633 7.060242,-4.950302 12,-11c4.049805,-4.959763 7.771942,-10.119553 11,-16c2.805908,-5.11145 5,-9 7,-11c1,-1 1.813995,-2.307449 0,-1c-2.294525,1.653809 -5,6 -7,10c-2,4 -3.498749,8.946716 -4,16c-0.070892,0.997482 0,8 4,12c1,1 2.016907,1.903381 8,3c5.015472,0.91925 11.022491,1.366547 14,1c4.092224,-0.503784 6.206818,-2.812653 8,-5c2.285889,-2.78833 2.847229,-6.041321 4,-10c0.884125,-3.036163 1,-8 1,-10c0,-2 0,-3 0,-5c0,-1 0.38269,-2.076126 0,-3c-1.082397,-2.613129 -5.924835,-4.284729 -13,-6c-4.955475,-1.201385 -11.038727,-2.519455 -14,-3c-3.121429,-0.506546 -5,-1 -6,-1c-1,0 -2,0 -3,0c-1,0 -1,0 -1,0c0,0 0.007538,0.787338 3,1c7.053284,0.501266 29,4 35,4l6,1l0,0" id="svg_1" stroke-width="1.5" stroke="#000" fill="none"/>
  <path d="m392.5,221.4375c1,0 3,0 7,0c7,0 11,0 17,0c5,0 8.228363,1.148056 11,0c2.613129,-1.082397 4.212616,-3.671219 9,-7c5.257172,-3.655426 9.404022,-6.41156 14,-10c3.344086,-2.610977 5,-4 7,-5c0,0 1,0 1,0c0,0 0,0 0,1c0,1 -0.458801,0.693436 -1,2c-0.38269,0.923874 0,2 0,3c0,1 -1.5495,3.351471 1,11c2.5495,7.648529 4.642151,13.597382 11,17c0.881683,0.471863 1,0 1,0c-1,0 -2,0 -4,0c-1,0 -4,1 -7,4c-3,3 -5.493469,4.878555 -6,8c-0.160187,0.987091 -0.38269,3.076126 0,4c0.541199,1.306564 1.823761,2.486252 4,3c3.893005,0.919006 13.087433,0.20607 18,-2c16.318634,-7.328156 30,-15 41,-22l6,-3l3,-1" id="svg_2" stroke-width="1.5" stroke="#000" fill="none"/>
 </g>
</svg>